<?xml version="1.0" standalone="no"?>
<!DOCTYPE svg PUBLIC "-//W3C//DTD SVG 20010904//EN"
 "http://www.w3.org/TR/2001/REC-SVG-20010904/DTD/svg10.dtd">
<svg version="1.0" xmlns="http://www.w3.org/2000/svg"
 width="438.000000pt" height="176.000000pt" viewBox="0 0 438.000000 176.000000"
 preserveAspectRatio="xMidYMid meet">

<g transform="translate(0.000000,176.000000) scale(0.100000,-0.100000)"
fill="#000000" stroke="none">
<path d="M1035 1563 c-297 -63 -513 -319 -532 -629 -6 -95 6 -158 32 -168 7
-2 57 -6 110 -7 l96 -2 38 37 c30 30 44 36 79 36 29 0 47 -6 59 -20 71 -80
140 -143 181 -164 44 -23 65 -84 42 -126 -7 -13 -7 -21 1 -25 18 -12 59 5 70
28 8 19 17 22 44 19 29 -4 37 0 52 26 15 24 22 28 36 20 24 -13 57 -1 67 26 7
19 14 22 39 18 39 -5 61 12 61 48 0 20 -38 73 -151 211 -83 101 -154 188 -159
193 -4 4 -46 -13 -93 -38 -92 -50 -144 -58 -197 -31 -33 17 -45 50 -37 101 l6
34 -90 0 c-49 0 -89 4 -89 9 0 16 91 130 127 160 57 47 145 90 230 112 123 32
280 11 387 -52 39 -23 42 -30 24 -59 -8 -13 -9 -23 -3 -28 15 -14 233 -24 240
-12 8 13 -62 199 -82 220 -13 13 -17 12 -34 -10 l-20 -26 -87 43 c-143 70
-295 89 -447 56z"/>
<path d="M1135 1268 c-42 -24 -213 -158 -218 -170 -10 -28 13 -48 56 -48 32 0
63 12 131 50 49 28 93 50 98 50 4 0 86 -94 180 -208 169 -204 174 -208 198
-195 27 14 71 16 107 7 l22 -6 -20 -49 c-119 -303 -492 -438 -773 -279 -65 37
-71 44 -51 60 19 16 19 46 1 53 -29 11 -223 19 -229 10 -4 -6 10 -58 29 -117
37 -111 50 -124 82 -87 17 20 18 19 81 -19 124 -76 244 -106 395 -98 171 10
318 77 442 204 123 125 194 297 194 471 0 98 -24 214 -48 236 -12 11 -49 16
-132 20 -113 4 -118 5 -269 66 -161 63 -229 76 -276 49z"/>
<path d="M1993 1204 c-13 -3 -32 -17 -43 -31 -19 -24 -20 -40 -20 -305 l0
-279 25 -24 c23 -24 28 -25 172 -24 91 0 162 5 183 13 28 9 39 9 55 0 15 -10
175 -13 655 -15 697 -3 660 -6 724 57 42 43 59 82 64 155 4 57 1 75 -22 124
-17 38 -23 62 -17 69 17 21 34 182 21 205 -28 53 -55 57 -335 53 -22 0 -180 1
-351 1 -282 2 -314 0 -331 -15 -17 -16 -22 -16 -63 -2 -25 9 -97 18 -162 21
-97 5 -125 3 -163 -11 -38 -15 -51 -16 -78 -6 -33 12 -274 23 -314 14z m1721
-85 c3 -3 2 -32 -2 -65 l-7 -59 -73 3 c-66 4 -72 2 -72 -16 0 -13 20 -31 63
-56 80 -48 100 -76 105 -146 4 -63 -16 -111 -60 -143 -35 -26 -123 -34 -194
-18 l-54 12 0 49 c0 78 2 79 68 64 65 -16 92 -11 92 16 0 13 -22 32 -70 60
-81 47 -104 81 -104 156 0 57 24 104 70 135 25 17 43 20 131 17 56 -2 104 -6
107 -9z m-1388 -31 c41 -40 45 -115 10 -168 -21 -32 -23 -41 -12 -47 44 -24
59 -122 28 -183 -28 -57 -67 -70 -214 -70 l-128 0 0 251 0 250 145 -3 c141 -3
145 -4 171 -30z m375 15 c39 -23 59 -70 59 -141 0 -47 -5 -67 -26 -97 l-26
-38 31 -98 c17 -53 31 -99 31 -103 0 -3 -35 -6 -78 -6 l-78 0 -24 90 c-13 50
-28 90 -32 90 -4 0 -8 -40 -8 -90 l0 -90 -70 0 -70 0 0 250 0 250 131 0 c105
0 137 -3 160 -17z m259 -233 l0 -250 -70 0 -70 0 0 250 0 250 70 0 70 0 0
-250z m221 153 l1 -98 32 95 33 95 76 3 c44 2 77 -1 77 -7 0 -5 -20 -63 -45
-129 -39 -104 -44 -124 -34 -149 6 -15 26 -70 45 -121 l34 -93 -82 3 -81 3
-28 80 -27 80 -1 -82 -1 -83 -75 0 -75 0 0 250 0 250 75 0 75 0 1 -97z"/>
<path d="M2154 960 c0 -45 2 -50 22 -50 17 0 24 8 29 29 8 36 -9 71 -33 71
-15 0 -18 -9 -18 -50z"/>
<path d="M2157 823 c-2 -5 -5 -32 -5 -61 -1 -52 0 -53 26 -50 24 3 27 8 30 46
2 24 -2 50 -9 58 -12 15 -35 19 -42 7z"/>
<path d="M2553 945 c0 -47 3 -55 18 -55 37 0 50 81 16 102 -27 17 -34 7 -34
-47z"/>
<path d="M810 758 c-37 -40 -44 -61 -30 -88 10 -18 26 -25 56 -21 7 1 15 -10
18 -24 5 -18 15 -27 36 -31 16 -4 36 -17 45 -30 9 -14 25 -24 38 -24 12 0 30
-9 40 -20 21 -25 42 -25 67 0 37 37 21 90 -27 90 -14 0 -23 6 -23 15 0 15 -38
37 -51 29 -4 -2 -9 10 -13 26 -4 24 -12 32 -36 36 -19 4 -30 13 -30 24 0 19
-30 50 -48 50 -6 0 -25 -15 -42 -32z"/>
</g>
</svg>
